<?xml version="1.0" encoding="UTF-8" standalone="no"?>
<svg
   xmlns:osb="http://www.openswatchbook.org/uri/2009/osb"
   xmlns:dc="http://purl.org/dc/elements/1.1/"
   xmlns:cc="http://creativecommons.org/ns#"
   xmlns:rdf="http://www.w3.org/1999/02/22-rdf-syntax-ns#"
   xmlns:svg="http://www.w3.org/2000/svg"
   xmlns="http://www.w3.org/2000/svg"
   xmlns:xlink="http://www.w3.org/1999/xlink"
   width="16.083315mm"
   height="16.083315mm"
   viewBox="0 0 16.083315 16.083315"
   version="1.1"
   id="svg8">
  <defs
     id="defs2">
    <linearGradient
       id="linearGradient2874">
      <stop
         style="stop-color:#00ffb3;stop-opacity:1;"
         offset="0"
         id="stop2870" />
      <stop
         style="stop-color:#00ffb3;stop-opacity:0;"
         offset="1"
         id="stop2872" />
    </linearGradient>
    <linearGradient
       id="linearGradient2866">
      <stop
         style="stop-color:#00ffb3;stop-opacity:1;"
         offset="0"
         id="stop2862" />
      <stop
         style="stop-color:#00ffb3;stop-opacity:0;"
         offset="1"
         id="stop2864" />
    </linearGradient>
    <linearGradient
       id="linearGradient2851"
       osb:paint="solid">
      <stop
         style="stop-color:#29292b;stop-opacity:1;"
         offset="0"
         id="stop2849" />
    </linearGradient>
    <rect
       x="-125.98515"
       y="40.945061"
       width="34.906155"
       height="23.908607"
       id="rect862" />
    <rect
       x="-120.90945"
       y="43.292866"
       width="16.43103"
       height="16.895054"
       id="rect841" />
    <rect
       x="-112.70778"
       y="40.815521"
       width="82.059219"
       height="110.70273"
       id="rect835" />
    <linearGradient
       xlink:href="#linearGradient2866"
       id="linearGradient2868"
       x1="-417.1731"
       y1="131.92061"
       x2="-467.18478"
       y2="126.52433"
       gradientUnits="userSpaceOnUse"
       gradientTransform="matrix(0.26458333,0,0,0.26458333,-5.969483,-1.3419873)" />
    <linearGradient
       xlink:href="#linearGradient2874"
       id="linearGradient2876"
       x1="-136.98323"
       y1="39.453991"
       x2="-128.26707"
       y2="36.819126"
       gradientUnits="userSpaceOnUse"
       gradientTransform="scale(3.7795276)" />
    <linearGradient
       xlink:href="#linearGradient2874"
       id="linearGradient2901"
       gradientUnits="userSpaceOnUse"
       gradientTransform="translate(-5.969483,-1.3419873)"
       x1="-136.98323"
       y1="39.453991"
       x2="-128.26707"
       y2="36.819126" />
  </defs>
  <metadata
     id="metadata5">
    <rdf:RDF>
      <cc:Work
         rdf:about="">
        <dc:format>image/svg+xml</dc:format>
        <dc:type
           rdf:resource="http://purl.org/dc/dcmitype/StillImage" />
        <dc:title></dc:title>
      </cc:Work>
    </rdf:RDF>
  </metadata>
  <g
     id="layer1"
     transform="translate(152.77225,-15.799856)">
    <text
       xml:space="preserve"
       id="text833"
       style="font-size:10.5833px;line-height:0;font-family:sans-serif;white-space:pre;shape-inside:url(#rect835);" />
    <g
       id="g2925"
       transform="translate(-13.117191,-10.462154)">
      <path
         id="ellipse900"
         style="fill:#29292b;fill-opacity:1;stroke-width:2.99998;stroke-linecap:round;stroke-linejoin:round"
         d="m -137.17749,27.630403 a 10.354599,3.7939826 45 0 0 -1.31775,0.475941 10.354599,3.7939826 45 0 0 2.24017,7.26364 h 10.07536 a 10.354599,3.7939826 45 0 0 -2.31098,-2.624648 10.354599,3.7939826 45 0 0 -8.6868,-5.114933 z" />
      <path
         id="ellipse902"
         style="fill:url(#linearGradient2901);fill-opacity:1;stroke-width:2.99998;stroke-linecap:round;stroke-linejoin:round"
         d="m -137.13977,28.805526 a 9.4964913,3.4795671 45 0 0 -1.27744,0.436666 9.4964913,3.4795671 45 0 0 -0.43563,1.195792 10.354599,3.7939826 45 0 0 2.59777,4.932 h 8.70903 a 9.4964913,3.4795671 45 0 0 -1.69602,-1.873271 9.4964913,3.4795671 45 0 0 -7.89771,-4.691187 z" />
      <path
         id="ellipse898"
         style="fill:#29292b;fill-opacity:1;stroke-width:2.99998;stroke-linecap:round;stroke-linejoin:round"
         d="m -126.78485,26.262013 a 3.7939826,10.354599 30 0 0 -7.67395,7.268805 3.7939826,10.354599 30 0 0 -0.97255,1.839166 h 8.57209 a 3.7939826,10.354599 30 0 0 0.86351,-8.909534 3.7939826,10.354599 30 0 0 -0.7891,-0.198437 z" />
      <path
         id="ellipse879"
         style="fill:url(#linearGradient2868);fill-opacity:1;stroke-width:2.99998;stroke-linecap:round;stroke-linejoin:round"
         d="m -126.50063,27.158082 a 3.4795671,9.4964913 30 0 0 -7.02076,6.666259 3.4795671,9.4964913 30 0 0 -0.8232,1.545643 h 7.48481 a 3.7939826,10.354599 30 0 0 1.78491,-7.129798 3.4795671,9.4964913 30 0 0 -0.68472,-0.900203 3.4795671,9.4964913 30 0 0 -0.74104,-0.181901 z" />
      <circle
         style="fill:#29292b;fill-opacity:1;stroke-width:3;stroke-linecap:round;stroke-linejoin:round"
         id="path896"
         cx="-131.17319"
         cy="35.428017"
         r="6.9173083" />
      <path
         d="m -132.51935,35.004274 h 2.69233 v 0.847491 h -2.69233 z"
         style="font-style:normal;font-variant:normal;font-weight:normal;font-stretch:normal;font-size:10.5833px;line-height:0;font-family:monospace;-inkscape-font-specification:monospace;white-space:pre;fill:#ffffff;fill-opacity:0.15101"
         id="path872" />
      <path
         d="m -132.71056,31.079462 4.06176,8.697116 h -0.98185 l -4.06692,-8.697116 z"
         style="font-style:normal;font-variant:normal;font-weight:normal;font-stretch:normal;font-size:10.5833px;line-height:0;font-family:monospace;-inkscape-font-specification:monospace;white-space:pre;fill:#ffffff;fill-opacity:0.251874"
         id="path868" />
      <path
         d="m -130.72876,30.136369 v 10.5833 h -0.88884 v -10.5833 z"
         style="font-style:normal;font-variant:normal;font-weight:normal;font-stretch:normal;font-size:10.5833px;line-height:0;font-family:monospace;-inkscape-font-specification:monospace;white-space:pre;fill:#ffffff;fill-opacity:0.454761"
         id="path870" />
      <path
         d="m -129.63064,31.079462 h 0.98184 l -4.06175,8.697116 h -0.98702 z"
         style="font-style:normal;font-variant:normal;font-weight:normal;font-stretch:normal;font-size:10.5833px;line-height:0;font-family:monospace;-inkscape-font-specification:monospace;white-space:pre;fill:#ffffff;fill-opacity:1"
         id="path866" />
    </g>
  </g>
</svg>
